<?xml version="1.0" encoding="UTF-8" standalone="yes"?>
<svg xmlns="http://www.w3.org/2000/svg" height="452" width="452">
<script type="text/ecmascript">
      <![CDATA[
        var shown = 1;
        function click() {
             var seq = document.getElementById("seq");
             if (shown==1) {
               seq.setAttribute("style", "visibility: hidden");
               shown = 0;
             } else {
               seq.setAttribute("style", "visibility: visible");
               shown = 1;
             }
         }
        ]]>
</script>
  <rect style="stroke: white; fill: white" height="452" x="0" y="0" width="452" onclick="click(evt)" />
  <g transform="scale(1.565040,1.565040) translate(43.634209,39.239983)">
    <polyline style="stroke: black; fill: none; stroke-width: 1.5" id="outline" points="
      109.543,-15.836
      108.818,-0.853
      108.094,14.129
      107.369,29.112
      106.644,44.094
      105.920,59.077
      105.195,74.059
      87.891,77.721
      75.188,88.682
      69.674,103.561
      54.678,103.924
      39.683,104.286
      24.687,104.649
      13.419,93.567
      -2.384,93.781
      -13.346,105.166
      -12.964,120.965
      -1.464,131.807
      14.330,131.258
      25.049,119.644
      40.045,119.282
      55.041,118.919
      70.036,118.557
      78.839,133.084
      93.966,140.811
      94.690,155.794
      95.415,170.776
      96.140,185.759
      96.864,200.741
      85.263,211.226
      83.166,226.723
      91.565,239.914
      106.493,244.570
      120.902,238.495
      127.988,224.555
      124.406,209.333
      111.847,200.017
      111.122,185.034
      110.397,170.052
      109.673,155.069
      108.948,140.087
      118.442,136.709
      126.657,130.288
      132.616,121.307
      135.527,110.565
      134.879,99.103
      149.525,95.867
      164.172,92.630
      178.819,89.393
      193.465,86.156
      214.888,73.741
      190.229,71.510
      175.582,74.746
      160.935,77.983
      146.289,81.220
      131.642,84.457
      120.177,74.784
      120.902,59.802
      121.627,44.819
      122.351,29.837
      123.076,14.854
      123.801,-0.128
      124.526,-15.111
      127.644,-34.240
    " />
    <g style="stroke: black; stroke-width: 1" id="pairs">
      <line id="1,63" x1="109.543" y1="-15.836" x2="124.526" y2="-15.111" />
      <line id="2,62" x1="108.818" y1="-0.853" x2="123.801" y2="-0.128" />
      <line id="3,61" x1="108.094" y1="14.129" x2="123.076" y2="14.854" />
      <line id="4,60" x1="107.369" y1="29.112" x2="122.351" y2="29.837" />
      <line id="5,59" x1="106.644" y1="44.094" x2="121.627" y2="44.819" />
      <line id="6,58" x1="105.920" y1="59.077" x2="120.902" y2="59.802" />
      <line id="7,57" x1="105.195" y1="74.059" x2="120.177" y2="74.784" />
      <line id="10,23" x1="69.674" y1="103.561" x2="70.036" y2="118.557" />
      <line id="11,22" x1="54.678" y1="103.924" x2="55.041" y2="118.919" />
      <line id="12,21" x1="39.683" y1="104.286" x2="40.045" y2="119.282" />
      <line id="13,20" x1="24.687" y1="104.649" x2="25.049" y2="119.644" />
      <line id="25,41" x1="93.966" y1="140.811" x2="108.948" y2="140.087" />
      <line id="26,40" x1="94.690" y1="155.794" x2="109.673" y2="155.069" />
      <line id="27,39" x1="95.415" y1="170.776" x2="110.397" y2="170.052" />
      <line id="28,38" x1="96.140" y1="185.759" x2="111.122" y2="185.034" />
      <line id="29,37" x1="96.864" y1="200.741" x2="111.847" y2="200.017" />
      <line id="46,56" x1="134.879" y1="99.103" x2="131.642" y2="84.457" />
      <line id="47,55" x1="149.525" y1="95.867" x2="146.289" y2="81.220" />
      <line id="48,54" x1="164.172" y1="92.630" x2="160.935" y2="77.983" />
      <line id="49,53" x1="178.819" y1="89.393" x2="175.582" y2="74.746" />
      <line id="50,52" x1="193.465" y1="86.156" x2="190.229" y2="71.510" />
    </g>
    <g style="font-family: SansSerif" transform="translate(-4.6, 4)" id="seq">
      <text x="109.543" y="-15.836">G</text>
      <text x="108.818" y="-0.853">U</text>
      <text x="108.094" y="14.129">U</text>
      <text x="107.369" y="29.112">U</text>
      <text x="106.644" y="44.094">U</text>
      <text x="105.920" y="59.077">A</text>
      <text x="105.195" y="74.059">A</text>
      <text x="87.891" y="77.721">U</text>
      <text x="75.188" y="88.682">A</text>
      <text x="69.674" y="103.561">G</text>
      <text x="54.678" y="103.924">U</text>
      <text x="39.683" y="104.286">U</text>
      <text x="24.687" y="104.649">U</text>
      <text x="13.419" y="93.567">A</text>
      <text x="-2.384" y="93.781">A</text>
      <text x="-13.346" y="105.166">A</text>
      <text x="-12.964" y="120.965">U</text>
      <text x="-1.464" y="131.807">A</text>
      <text x="14.330" y="131.258">A</text>
      <text x="25.049" y="119.644">A</text>
      <text x="40.045" y="119.282">A</text>
      <text x="55.041" y="118.919">A</text>
      <text x="70.036" y="118.557">C</text>
      <text x="78.839" y="133.084">U</text>
      <text x="93.966" y="140.811">U</text>
      <text x="94.690" y="155.794">U</text>
      <text x="95.415" y="170.776">G</text>
      <text x="96.140" y="185.759">G</text>
      <text x="96.864" y="200.741">U</text>
      <text x="85.263" y="211.226">C</text>
      <text x="83.166" y="226.723">U</text>
      <text x="91.565" y="239.914">U</text>
      <text x="106.493" y="244.570">G</text>
      <text x="120.902" y="238.495">U</text>
      <text x="127.988" y="224.555">A</text>
      <text x="124.406" y="209.333">A</text>
      <text x="111.847" y="200.017">G</text>
      <text x="111.122" y="185.034">C</text>
      <text x="110.397" y="170.052">C</text>
      <text x="109.673" y="155.069">A</text>
      <text x="108.948" y="140.087">A</text>
      <text x="118.442" y="136.709">G</text>
      <text x="126.657" y="130.288">A</text>
      <text x="132.616" y="121.307">A</text>
      <text x="135.527" y="110.565">U</text>
      <text x="134.879" y="99.103">G</text>
      <text x="149.525" y="95.867">A</text>
      <text x="164.172" y="92.630">A</text>
      <text x="178.819" y="89.393">A</text>
      <text x="193.465" y="86.156">A</text>
      <text x="214.888" y="73.741">U</text>
      <text x="190.229" y="71.510">U</text>
      <text x="175.582" y="74.746">U</text>
      <text x="160.935" y="77.983">U</text>
      <text x="146.289" y="81.220">U</text>
      <text x="131.642" y="84.457">C</text>
      <text x="120.177" y="74.784">U</text>
      <text x="120.902" y="59.802">U</text>
      <text x="121.627" y="44.819">A</text>
      <text x="122.351" y="29.837">A</text>
      <text x="123.076" y="14.854">A</text>
      <text x="123.801" y="-0.128">G</text>
      <text x="124.526" y="-15.111">C</text>
      <text x="127.644" y="-34.240">U</text>
    </g>
  </g>
</svg>
