<?xml version="1.0" encoding="UTF-8" standalone="yes"?>
<svg xmlns="http://www.w3.org/2000/svg" height="452" width="452">
<script type="text/ecmascript">
      <![CDATA[
        var shown = 1;
        function click() {
             var seq = document.getElementById("seq");
             if (shown==1) {
               seq.setAttribute("style", "visibility: hidden");
               shown = 0;
             } else {
               seq.setAttribute("style", "visibility: visible");
               shown = 1;
             }
         }
        ]]>
</script>
  <rect style="stroke: white; fill: white" height="452" x="0" y="0" width="452" onclick="click(evt)" />
  <g transform="scale(1.445405,1.445405) translate(100.666649,54.275002)">
    <polyline style="stroke: black; fill: none; stroke-width: 1.5" id="outline" points="
      90.117,-36.047
      98.147,-21.749
      97.474,-6.764
      96.801,8.221
      96.128,23.206
      95.455,38.191
      94.782,53.176
      74.192,59.881
      58.208,74.491
      49.684,94.398
      34.699,93.725
      19.714,93.052
      4.729,92.379
      -4.631,79.852
      -19.865,76.322
      -33.780,83.457
      -39.806,97.886
      -35.098,112.798
      -21.878,121.151
      -6.389,119.002
      4.056,107.364
      19.041,108.037
      34.026,108.710
      49.011,109.383
      56.107,130.633
      71.590,146.826
      92.500,154.869
      92.500,169.869
      92.500,184.869
      92.500,199.869
      79.466,208.123
      72.985,222.123
      75.124,237.401
      85.201,249.083
      100.000,253.440
      114.799,249.083
      124.876,237.401
      127.015,222.123
      120.534,208.123
      107.500,199.869
      107.500,184.869
      107.500,169.869
      107.500,154.869
      114.872,153.216
      121.920,150.497
      128.492,146.772
      134.446,142.121
      139.651,136.645
      143.994,130.464
      147.382,123.712
      149.741,116.534
      151.019,109.089
      151.188,101.536
      150.246,94.040
      148.211,86.764
      145.130,79.867
      141.068,73.497
      136.114,67.793
      130.375,62.880
      123.977,58.863
      117.057,55.831
      109.767,53.849
      110.440,38.864
      111.113,23.879
      111.786,8.894
      112.459,-6.091
      113.132,-21.076
      122.412,-34.597
      115.099,-49.275
    " />
    <g style="stroke: black; stroke-width: 1" id="pairs">
      <line id="2,67" x1="98.147" y1="-21.749" x2="113.132" y2="-21.076" />
      <line id="3,66" x1="97.474" y1="-6.764" x2="112.459" y2="-6.091" />
      <line id="4,65" x1="96.801" y1=" 8.221" x2="111.786" y2=" 8.894" />
      <line id="5,64" x1="96.128" y1="23.206" x2="111.113" y2="23.879" />
      <line id="6,63" x1="95.455" y1="38.191" x2="110.440" y2="38.864" />
      <line id="7,62" x1="94.782" y1="53.176" x2="109.767" y2="53.849" />
      <line id="10,24" x1="49.684" y1="94.398" x2="49.011" y2="109.383" />
      <line id="11,23" x1="34.699" y1="93.725" x2="34.026" y2="108.710" />
      <line id="12,22" x1="19.714" y1="93.052" x2="19.041" y2="108.037" />
      <line id="13,21" x1=" 4.729" y1="92.379" x2=" 4.056" y2="107.364" />
      <line id="27,43" x1="92.500" y1="154.869" x2="107.500" y2="154.869" />
      <line id="28,42" x1="92.500" y1="169.869" x2="107.500" y2="169.869" />
      <line id="29,41" x1="92.500" y1="184.869" x2="107.500" y2="184.869" />
      <line id="30,40" x1="92.500" y1="199.869" x2="107.500" y2="199.869" />
    </g>
    <g style="font-family: SansSerif" transform="translate(-4.6, 4)" id="seq">
      <text x="90.117" y="-36.047">A</text>
      <text x="98.147" y="-21.749">C</text>
      <text x="97.474" y="-6.764">U</text>
      <text x="96.801" y="8.221">U</text>
      <text x="96.128" y="23.206">C</text>
      <text x="95.455" y="38.191">U</text>
      <text x="94.782" y="53.176">A</text>
      <text x="74.192" y="59.881">A</text>
      <text x="58.208" y="74.491">A</text>
      <text x="49.684" y="94.398">A</text>
      <text x="34.699" y="93.725">G</text>
      <text x="19.714" y="93.052">A</text>
      <text x="4.729" y="92.379">A</text>
      <text x="-4.631" y="79.852">G</text>
      <text x="-19.865" y="76.322">G</text>
      <text x="-33.780" y="83.457">G</text>
      <text x="-39.806" y="97.886">G</text>
      <text x="-35.098" y="112.798">C</text>
      <text x="-21.878" y="121.151">C</text>
      <text x="-6.389" y="119.002">C</text>
      <text x="4.056" y="107.364">U</text>
      <text x="19.041" y="108.037">U</text>
      <text x="34.026" y="108.710">C</text>
      <text x="49.011" y="109.383">U</text>
      <text x="56.107" y="130.633">G</text>
      <text x="71.590" y="146.826">A</text>
      <text x="92.500" y="154.869">U</text>
      <text x="92.500" y="169.869">A</text>
      <text x="92.500" y="184.869">G</text>
      <text x="92.500" y="199.869">G</text>
      <text x="79.466" y="208.123">A</text>
      <text x="72.985" y="222.123">G</text>
      <text x="75.124" y="237.401">C</text>
      <text x="85.201" y="249.083">U</text>
      <text x="100.000" y="253.440">U</text>
      <text x="114.799" y="249.083">A</text>
      <text x="124.876" y="237.401">A</text>
      <text x="127.015" y="222.123">A</text>
      <text x="120.534" y="208.123">U</text>
      <text x="107.500" y="199.869">C</text>
      <text x="107.500" y="184.869">C</text>
      <text x="107.500" y="169.869">U</text>
      <text x="107.500" y="154.869">A</text>
      <text x="114.872" y="153.216">G</text>
      <text x="121.920" y="150.497">G</text>
      <text x="128.492" y="146.772">C</text>
      <text x="134.446" y="142.121">A</text>
      <text x="139.651" y="136.645">U</text>
      <text x="143.994" y="130.464">C</text>
      <text x="147.382" y="123.712">U</text>
      <text x="149.741" y="116.534">A</text>
      <text x="151.019" y="109.089">U</text>
      <text x="151.188" y="101.536">C</text>
      <text x="150.246" y="94.040">U</text>
      <text x="148.211" y="86.764">G</text>
      <text x="145.130" y="79.867">C</text>
      <text x="141.068" y="73.497">C</text>
      <text x="136.114" y="67.793">A</text>
      <text x="130.375" y="62.880">U</text>
      <text x="123.977" y="58.863">U</text>
      <text x="117.057" y="55.831">U</text>
      <text x="109.767" y="53.849">U</text>
      <text x="110.440" y="38.864">A</text>
      <text x="111.113" y="23.879">G</text>
      <text x="111.786" y="8.894">A</text>
      <text x="112.459" y="-6.091">A</text>
      <text x="113.132" y="-21.076">G</text>
      <text x="122.412" y="-34.597">C</text>
      <text x="115.099" y="-49.275">U</text>
    </g>
  </g>
</svg>
