<?xml version="1.0" encoding="UTF-8" standalone="yes"?>
<svg xmlns="http://www.w3.org/2000/svg" height="452" width="452">
<script type="text/ecmascript">
      <![CDATA[
        var shown = 1;
        function click() {
             var seq = document.getElementById("seq");
             if (shown==1) {
               seq.setAttribute("style", "visibility: hidden");
               shown = 0;
             } else {
               seq.setAttribute("style", "visibility: visible");
               shown = 1;
             }
         }
        ]]>
</script>
  <rect style="stroke: white; fill: white" height="452" x="0" y="0" width="452" onclick="click(evt)" />
  <g transform="scale(1.601165,1.601165) translate(28.374718,34.880058)">
    <polyline style="stroke: black; fill: none; stroke-width: 1.5" id="outline" points="
      116.737,-11.450
      116.034,3.534
      114.980,18.497
      113.575,33.431
      112.171,48.365
      110.766,63.299
      109.361,78.233
      92.517,79.591
      79.060,88.326
      71.788,101.660
      56.891,99.906
      41.994,98.152
      32.400,85.592
      16.725,83.578
      4.268,93.304
      2.419,109.000
      12.277,121.353
      27.991,123.036
      40.240,113.049
      55.137,114.803
      70.034,116.557
      75.210,129.844
      85.901,139.281
      82.416,153.870
      78.932,168.460
      75.447,183.050
      71.963,197.639
      57.896,204.471
      51.559,218.767
      55.944,233.777
      68.980,242.414
      84.512,240.600
      95.206,229.191
      96.013,213.575
      86.552,201.124
      90.037,186.534
      93.521,171.945
      97.006,157.355
      100.491,142.765
      111.212,141.756
      121.254,136.940
      129.268,128.683
      134.083,117.826
      134.874,105.607
      149.870,105.255
      164.866,104.903
      179.862,104.552
      194.858,104.200
      208.981,112.535
      223.126,104.237
      222.741,87.842
      208.223,80.217
      194.506,89.204
      179.510,89.556
      164.514,89.908
      149.518,90.259
      134.523,90.611
      124.295,79.638
      125.700,64.704
      127.105,49.770
      128.509,34.836
      129.914,19.902
      133.953,11.309
      131.018,4.237
      131.721,-10.746
      134.812,-29.880
    " />
    <g style="stroke: black; stroke-width: 1" id="pairs">
      <line id="1,65" x1="116.737" y1="-11.450" x2="131.721" y2="-10.746" />
      <line id="2,64" x1="116.034" y1=" 3.534" x2="131.018" y2=" 4.237" />
      <line id="3,62" x1="114.980" y1="18.497" x2="129.914" y2="19.902" />
      <line id="4,61" x1="113.575" y1="33.431" x2="128.509" y2="34.836" />
      <line id="5,60" x1="112.171" y1="48.365" x2="127.105" y2="49.770" />
      <line id="6,59" x1="110.766" y1="63.299" x2="125.700" y2="64.704" />
      <line id="7,58" x1="109.361" y1="78.233" x2="124.295" y2="79.638" />
      <line id="10,21" x1="71.788" y1="101.660" x2="70.034" y2="116.557" />
      <line id="11,20" x1="56.891" y1="99.906" x2="55.137" y2="114.803" />
      <line id="12,19" x1="41.994" y1="98.152" x2="40.240" y2="113.049" />
      <line id="23,39" x1="85.901" y1="139.281" x2="100.491" y2="142.765" />
      <line id="24,38" x1="82.416" y1="153.870" x2="97.006" y2="157.355" />
      <line id="25,37" x1="78.932" y1="168.460" x2="93.521" y2="171.945" />
      <line id="26,36" x1="75.447" y1="183.050" x2="90.037" y2="186.534" />
      <line id="27,35" x1="71.963" y1="197.639" x2="86.552" y2="201.124" />
      <line id="44,57" x1="134.874" y1="105.607" x2="134.523" y2="90.611" />
      <line id="45,56" x1="149.870" y1="105.255" x2="149.518" y2="90.259" />
      <line id="46,55" x1="164.866" y1="104.903" x2="164.514" y2="89.908" />
      <line id="47,54" x1="179.862" y1="104.552" x2="179.510" y2="89.556" />
      <line id="48,53" x1="194.858" y1="104.200" x2="194.506" y2="89.204" />
    </g>
    <g style="font-family: SansSerif" transform="translate(-4.6, 4)" id="seq">
      <text x="116.737" y="-11.450">U</text>
      <text x="116.034" y="3.534">C</text>
      <text x="114.980" y="18.497">U</text>
      <text x="113.575" y="33.431">A</text>
      <text x="112.171" y="48.365">A</text>
      <text x="110.766" y="63.299">A</text>
      <text x="109.361" y="78.233">A</text>
      <text x="92.517" y="79.591">U</text>
      <text x="79.060" y="88.326">G</text>
      <text x="71.788" y="101.660">G</text>
      <text x="56.891" y="99.906">C</text>
      <text x="41.994" y="98.152">A</text>
      <text x="32.400" y="85.592">G</text>
      <text x="16.725" y="83.578">A</text>
      <text x="4.268" y="93.304">U</text>
      <text x="2.419" y="109.000">A</text>
      <text x="12.277" y="121.353">G</text>
      <text x="27.991" y="123.036">A</text>
      <text x="40.240" y="113.049">U</text>
      <text x="55.137" y="114.803">G</text>
      <text x="70.034" y="116.557">C</text>
      <text x="75.210" y="129.844">C</text>
      <text x="85.901" y="139.281">U</text>
      <text x="82.416" y="153.870">A</text>
      <text x="78.932" y="168.460">G</text>
      <text x="75.447" y="183.050">G</text>
      <text x="71.963" y="197.639">A</text>
      <text x="57.896" y="204.471">U</text>
      <text x="51.559" y="218.767">U</text>
      <text x="55.944" y="233.777">U</text>
      <text x="68.980" y="242.414">A</text>
      <text x="84.512" y="240.600">A</text>
      <text x="95.206" y="229.191">G</text>
      <text x="96.013" y="213.575">C</text>
      <text x="86.552" y="201.124">U</text>
      <text x="90.037" y="186.534">C</text>
      <text x="93.521" y="171.945">C</text>
      <text x="97.006" y="157.355">U</text>
      <text x="100.491" y="142.765">A</text>
      <text x="111.212" y="141.756">U</text>
      <text x="121.254" y="136.940">C</text>
      <text x="129.268" y="128.683">A</text>
      <text x="134.083" y="117.826">G</text>
      <text x="134.874" y="105.607">G</text>
      <text x="149.870" y="105.255">A</text>
      <text x="164.866" y="104.903">A</text>
      <text x="179.862" y="104.552">G</text>
      <text x="194.858" y="104.200">G</text>
      <text x="208.981" y="112.535">G</text>
      <text x="223.126" y="104.237">C</text>
      <text x="222.741" y="87.842">C</text>
      <text x="208.223" y="80.217">C</text>
      <text x="194.506" y="89.204">C</text>
      <text x="179.510" y="89.556">C</text>
      <text x="164.514" y="89.908">U</text>
      <text x="149.518" y="90.259">U</text>
      <text x="134.523" y="90.611">C</text>
      <text x="124.295" y="79.638">U</text>
      <text x="125.700" y="64.704">U</text>
      <text x="127.105" y="49.770">U</text>
      <text x="128.509" y="34.836">U</text>
      <text x="129.914" y="19.902">A</text>
      <text x="133.953" y="11.309">C</text>
      <text x="131.018" y="4.237">G</text>
      <text x="131.721" y="-10.746">A</text>
      <text x="134.812" y="-29.880">A</text>
    </g>
  </g>
</svg>
