<?xml version="1.0" encoding="UTF-8" standalone="yes"?>
<svg xmlns="http://www.w3.org/2000/svg" height="452" width="452">
<script type="text/ecmascript">
      <![CDATA[
        var shown = 1;
        function click() {
             var seq = document.getElementById("seq");
             if (shown==1) {
               seq.setAttribute("style", "visibility: hidden");
               shown = 0;
             } else {
               seq.setAttribute("style", "visibility: visible");
               shown = 1;
             }
         }
        ]]>
</script>
  <rect style="stroke: white; fill: white" height="452" x="0" y="0" width="452" onclick="click(evt)" />
  <g transform="scale(1.584064,1.584064) translate(41.899956,35.771477)">
    <polyline style="stroke: black; fill: none; stroke-width: 1.5" id="outline" points="
      109.543,-12.367
      108.818,2.615
      108.094,17.598
      107.369,32.580
      106.644,47.563
      105.920,62.545
      105.195,77.528
      87.891,81.190
      75.188,92.150
      69.674,107.030
      54.678,107.392
      39.683,107.755
      24.687,108.117
      13.419,97.035
      -2.384,97.250
      -13.346,108.634
      -12.964,124.434
      -1.464,135.275
      14.330,134.726
      25.049,123.113
      40.045,122.750
      55.041,122.388
      70.036,122.025
      78.839,136.552
      93.966,144.280
      86.904,158.438
      95.247,170.776
      95.972,185.759
      96.697,200.741
      85.095,211.226
      82.999,226.723
      91.397,239.914
      106.325,244.570
      120.734,238.495
      127.821,224.555
      124.238,209.333
      111.679,200.017
      110.954,185.034
      110.230,170.052
      117.343,156.965
      108.948,143.555
      118.442,140.178
      126.657,133.756
      132.616,124.775
      135.527,114.034
      134.879,102.572
      149.525,99.335
      164.172,96.098
      178.819,92.862
      193.465,89.625
      214.888,77.210
      190.229,74.978
      175.582,78.215
      160.935,81.452
      146.289,84.688
      131.642,87.925
      120.177,78.253
      120.902,63.270
      121.627,48.288
      122.351,33.305
      123.076,18.323
      123.801,3.340
      124.526,-11.642
      127.644,-30.771
    " />
    <g style="stroke: black; stroke-width: 1" id="pairs">
      <line id="1,63" x1="109.543" y1="-12.367" x2="124.526" y2="-11.642" />
      <line id="2,62" x1="108.818" y1=" 2.615" x2="123.801" y2=" 3.340" />
      <line id="3,61" x1="108.094" y1="17.598" x2="123.076" y2="18.323" />
      <line id="4,60" x1="107.369" y1="32.580" x2="122.351" y2="33.305" />
      <line id="5,59" x1="106.644" y1="47.563" x2="121.627" y2="48.288" />
      <line id="6,58" x1="105.920" y1="62.545" x2="120.902" y2="63.270" />
      <line id="7,57" x1="105.195" y1="77.528" x2="120.177" y2="78.253" />
      <line id="10,23" x1="69.674" y1="107.030" x2="70.036" y2="122.025" />
      <line id="11,22" x1="54.678" y1="107.392" x2="55.041" y2="122.388" />
      <line id="12,21" x1="39.683" y1="107.755" x2="40.045" y2="122.750" />
      <line id="13,20" x1="24.687" y1="108.117" x2="25.049" y2="123.113" />
      <line id="25,41" x1="93.966" y1="144.280" x2="108.948" y2="143.555" />
      <line id="27,39" x1="95.247" y1="170.776" x2="110.230" y2="170.052" />
      <line id="28,38" x1="95.972" y1="185.759" x2="110.954" y2="185.034" />
      <line id="29,37" x1="96.697" y1="200.741" x2="111.679" y2="200.017" />
      <line id="46,56" x1="134.879" y1="102.572" x2="131.642" y2="87.925" />
      <line id="47,55" x1="149.525" y1="99.335" x2="146.289" y2="84.688" />
      <line id="48,54" x1="164.172" y1="96.098" x2="160.935" y2="81.452" />
      <line id="49,53" x1="178.819" y1="92.862" x2="175.582" y2="78.215" />
      <line id="50,52" x1="193.465" y1="89.625" x2="190.229" y2="74.978" />
    </g>
    <g style="font-family: SansSerif" transform="translate(-4.6, 4)" id="seq">
      <text x="109.543" y="-12.367">A</text>
      <text x="108.818" y="2.615">A</text>
      <text x="108.094" y="17.598">G</text>
      <text x="107.369" y="32.580">A</text>
      <text x="106.644" y="47.563">A</text>
      <text x="105.920" y="62.545">A</text>
      <text x="105.195" y="77.528">U</text>
      <text x="87.891" y="81.190">U</text>
      <text x="75.188" y="92.150">A</text>
      <text x="69.674" y="107.030">G</text>
      <text x="54.678" y="107.392">U</text>
      <text x="39.683" y="107.755">U</text>
      <text x="24.687" y="108.117">A</text>
      <text x="13.419" y="97.035">A</text>
      <text x="-2.384" y="97.250">U</text>
      <text x="-13.346" y="108.634">C</text>
      <text x="-12.964" y="124.434">U</text>
      <text x="-1.464" y="135.275">A</text>
      <text x="14.330" y="134.726">A</text>
      <text x="25.049" y="123.113">U</text>
      <text x="40.045" y="122.750">A</text>
      <text x="55.041" y="122.388">A</text>
      <text x="70.036" y="122.025">C</text>
      <text x="78.839" y="136.552">G</text>
      <text x="93.966" y="144.280">C</text>
      <text x="86.904" y="158.438">C</text>
      <text x="95.247" y="170.776">A</text>
      <text x="95.972" y="185.759">A</text>
      <text x="96.697" y="200.741">C</text>
      <text x="85.095" y="211.226">U</text>
      <text x="82.999" y="226.723">U</text>
      <text x="91.397" y="239.914">G</text>
      <text x="106.325" y="244.570">U</text>
      <text x="120.734" y="238.495">C</text>
      <text x="127.821" y="224.555">A</text>
      <text x="124.238" y="209.333">U</text>
      <text x="111.679" y="200.017">G</text>
      <text x="110.954" y="185.034">U</text>
      <text x="110.230" y="170.052">U</text>
      <text x="117.343" y="156.965">U</text>
      <text x="108.948" y="143.555">G</text>
      <text x="118.442" y="140.178">A</text>
      <text x="126.657" y="133.756">A</text>
      <text x="132.616" y="124.775">U</text>
      <text x="135.527" y="114.034">A</text>
      <text x="134.879" y="102.572">A</text>
      <text x="149.525" y="99.335">U</text>
      <text x="164.172" y="96.098">C</text>
      <text x="178.819" y="92.862">C</text>
      <text x="193.465" y="89.625">U</text>
      <text x="214.888" y="77.210">A</text>
      <text x="190.229" y="74.978">A</text>
      <text x="175.582" y="78.215">G</text>
      <text x="160.935" y="81.452">G</text>
      <text x="146.289" y="84.688">A</text>
      <text x="131.642" y="87.925">U</text>
      <text x="120.177" y="78.253">A</text>
      <text x="120.902" y="63.270">U</text>
      <text x="121.627" y="48.288">U</text>
      <text x="122.351" y="33.305">U</text>
      <text x="123.076" y="18.323">C</text>
      <text x="123.801" y="3.340">U</text>
      <text x="124.526" y="-11.642">U</text>
      <text x="127.644" y="-30.771">G</text>
    </g>
  </g>
</svg>
