<?xml version="1.0" encoding="UTF-8" standalone="yes"?>
<svg xmlns="http://www.w3.org/2000/svg" height="452" width="452">
<script type="text/ecmascript">
      <![CDATA[
        var shown = 1;
        function click() {
             var seq = document.getElementById("seq");
             if (shown==1) {
               seq.setAttribute("style", "visibility: hidden");
               shown = 0;
             } else {
               seq.setAttribute("style", "visibility: visible");
               shown = 1;
             }
         }
        ]]>
</script>
  <rect style="stroke: white; fill: white" height="452" x="0" y="0" width="452" onclick="click(evt)" />
  <g transform="scale(1.606713,1.606713) translate(30.907356,36.446815)">
    <polyline style="stroke: black; fill: none; stroke-width: 1.5" id="outline" points="
      111.395,-13.004
      110.702,1.980
      110.010,16.964
      109.317,31.948
      101.000,44.305
      108.092,58.447
      107.399,73.431
      90.907,75.680
      78.048,84.865
      71.337,98.238
      56.401,96.854
      41.465,95.470
      32.711,82.512
      17.662,78.263
      3.424,84.728
      -3.281,98.856
      0.713,113.974
      13.521,122.946
      29.095,121.534
      40.081,110.406
      55.017,111.790
      69.953,113.174
      75.725,126.758
      87.211,136.026
      84.454,150.771
      81.698,165.516
      78.942,180.260
      76.186,195.005
      62.476,202.526
      56.856,217.119
      61.980,231.893
      75.428,239.873
      90.851,237.290
      100.966,225.365
      100.998,209.727
      90.930,197.761
      93.687,183.016
      96.443,168.272
      99.199,153.527
      101.955,138.783
      112.740,137.223
      122.636,131.829
      130.283,123.049
      134.533,111.809
      134.616,99.419
      149.552,98.035
      164.488,96.651
      179.424,95.267
      190.410,106.395
      205.984,107.807
      218.791,98.835
      222.786,83.717
      216.081,69.589
      201.843,63.124
      186.794,67.373
      178.040,80.331
      163.104,81.715
      148.168,83.099
      133.232,84.483
      122.383,74.124
      123.076,59.140
      131.442,45.712
      124.301,32.641
      124.994,17.657
      125.686,2.673
      126.379,-12.311
      129.457,-31.447
    " />
    <g style="stroke: black; stroke-width: 1" id="pairs">
      <line id="1,66" x1="111.395" y1="-13.004" x2="126.379" y2="-12.311" />
      <line id="2,65" x1="110.702" y1=" 1.980" x2="125.686" y2=" 2.673" />
      <line id="3,64" x1="110.010" y1="16.964" x2="124.994" y2="17.657" />
      <line id="4,63" x1="109.317" y1="31.948" x2="124.301" y2="32.641" />
      <line id="6,61" x1="108.092" y1="58.447" x2="123.076" y2="59.140" />
      <line id="7,60" x1="107.399" y1="73.431" x2="122.383" y2="74.124" />
      <line id="10,22" x1="71.337" y1="98.238" x2="69.953" y2="113.174" />
      <line id="11,21" x1="56.401" y1="96.854" x2="55.017" y2="111.790" />
      <line id="12,20" x1="41.465" y1="95.470" x2="40.081" y2="110.406" />
      <line id="24,40" x1="87.211" y1="136.026" x2="101.955" y2="138.783" />
      <line id="25,39" x1="84.454" y1="150.771" x2="99.199" y2="153.527" />
      <line id="26,38" x1="81.698" y1="165.516" x2="96.443" y2="168.272" />
      <line id="27,37" x1="78.942" y1="180.260" x2="93.687" y2="183.016" />
      <line id="28,36" x1="76.186" y1="195.005" x2="90.930" y2="197.761" />
      <line id="45,59" x1="134.616" y1="99.419" x2="133.232" y2="84.483" />
      <line id="46,58" x1="149.552" y1="98.035" x2="148.168" y2="83.099" />
      <line id="47,57" x1="164.488" y1="96.651" x2="163.104" y2="81.715" />
      <line id="48,56" x1="179.424" y1="95.267" x2="178.040" y2="80.331" />
    </g>
    <g style="font-family: SansSerif" transform="translate(-4.6, 4)" id="seq">
      <text x="111.395" y="-13.004">C</text>
      <text x="110.702" y="1.980">G</text>
      <text x="110.010" y="16.964">C</text>
      <text x="109.317" y="31.948">C</text>
      <text x="101.000" y="44.305">C</text>
      <text x="108.092" y="58.447">G</text>
      <text x="107.399" y="73.431">A</text>
      <text x="90.907" y="75.680">U</text>
      <text x="78.048" y="84.865">G</text>
      <text x="71.337" y="98.238">A</text>
      <text x="56.401" y="96.854">C</text>
      <text x="41.465" y="95.470">U</text>
      <text x="32.711" y="82.512">G</text>
      <text x="17.662" y="78.263">A</text>
      <text x="3.424" y="84.728">A</text>
      <text x="-3.281" y="98.856">A</text>
      <text x="0.713" y="113.974">G</text>
      <text x="13.521" y="122.946">G</text>
      <text x="29.095" y="121.534">A</text>
      <text x="40.081" y="110.406">A</text>
      <text x="55.017" y="111.790">G</text>
      <text x="69.953" y="113.174">U</text>
      <text x="75.725" y="126.758">G</text>
      <text x="87.211" y="136.026">U</text>
      <text x="84.454" y="150.771">A</text>
      <text x="81.698" y="165.516">G</text>
      <text x="78.942" y="180.260">G</text>
      <text x="76.186" y="195.005">U</text>
      <text x="62.476" y="202.526">C</text>
      <text x="56.856" y="217.119">U</text>
      <text x="61.980" y="231.893">U</text>
      <text x="75.428" y="239.873">U</text>
      <text x="90.851" y="237.290">U</text>
      <text x="100.966" y="225.365">A</text>
      <text x="100.998" y="209.727">A</text>
      <text x="90.930" y="197.761">A</text>
      <text x="93.687" y="183.016">C</text>
      <text x="96.443" y="168.272">C</text>
      <text x="99.199" y="153.527">U</text>
      <text x="101.955" y="138.783">A</text>
      <text x="112.740" y="137.223">U</text>
      <text x="122.636" y="131.829">U</text>
      <text x="130.283" y="123.049">A</text>
      <text x="134.533" y="111.809">U</text>
      <text x="134.616" y="99.419">A</text>
      <text x="149.552" y="98.035">G</text>
      <text x="164.488" y="96.651">U</text>
      <text x="179.424" y="95.267">A</text>
      <text x="190.410" y="106.395">C</text>
      <text x="205.984" y="107.807">A</text>
      <text x="218.791" y="98.835">A</text>
      <text x="222.786" y="83.717">C</text>
      <text x="216.081" y="69.589">G</text>
      <text x="201.843" y="63.124">A</text>
      <text x="186.794" y="67.373">A</text>
      <text x="178.040" y="80.331">U</text>
      <text x="163.104" y="81.715">A</text>
      <text x="148.168" y="83.099">C</text>
      <text x="133.232" y="84.483">U</text>
      <text x="122.383" y="74.124">U</text>
      <text x="123.076" y="59.140">C</text>
      <text x="131.442" y="45.712">U</text>
      <text x="124.301" y="32.641">G</text>
      <text x="124.994" y="17.657">G</text>
      <text x="125.686" y="2.673">C</text>
      <text x="126.379" y="-12.311">G</text>
      <text x="129.457" y="-31.447">A</text>
    </g>
  </g>
</svg>
