<?xml version="1.0" encoding="UTF-8" standalone="yes"?>
<svg xmlns="http://www.w3.org/2000/svg" height="452" width="452">
<script type="text/ecmascript">
      <![CDATA[
        var shown = 1;
        function click() {
             var seq = document.getElementById("seq");
             if (shown==1) {
               seq.setAttribute("style", "visibility: hidden");
               shown = 0;
             } else {
               seq.setAttribute("style", "visibility: visible");
               shown = 1;
             }
         }
        ]]>
</script>
  <rect style="stroke: white; fill: white" height="452" x="0" y="0" width="452" onclick="click(evt)" />
  <g transform="scale(1.587398,1.587398) translate(30.018639,36.368805)">
    <polyline style="stroke: black; fill: none; stroke-width: 1.5" id="outline" points="
      111.684,-12.951
      110.970,2.032
      110.256,17.015
      109.543,31.998
      108.829,46.981
      108.115,61.964
      107.401,76.947
      90.909,79.194
      78.040,88.368
      71.303,101.731
      56.371,100.305
      41.439,98.879
      31.571,86.534
      15.855,84.866
      3.615,94.863
      2.113,110.596
      12.240,122.730
      27.988,124.066
      40.013,113.811
      54.945,115.237
      69.878,116.663
      75.599,130.271
      87.044,139.595
      84.206,154.324
      81.367,169.053
      78.528,183.782
      75.689,198.511
      61.937,205.955
      56.236,220.516
      61.277,235.319
      74.681,243.374
      90.118,240.878
      100.299,229.009
      100.418,213.372
      90.418,201.350
      93.257,186.621
      96.096,171.892
      98.935,157.163
      101.773,142.434
      112.630,140.917
      122.603,135.526
      130.313,126.709
      134.594,115.406
      134.666,102.944
      149.598,101.518
      164.530,100.092
      179.463,98.666
      194.395,97.241
      209.079,104.542
      222.592,95.251
      221.034,78.926
      206.006,72.360
      192.969,82.309
      178.037,83.734
      163.105,85.160
      148.173,86.586
      133.240,88.012
      122.384,77.661
      123.098,62.678
      123.812,47.695
      124.526,32.712
      125.239,17.729
      125.953,2.746
      126.667,-12.237
      129.772,-31.369
    " />
    <g style="stroke: black; stroke-width: 1" id="pairs">
      <line id="1,64" x1="111.684" y1="-12.951" x2="126.667" y2="-12.237" />
      <line id="2,63" x1="110.970" y1=" 2.032" x2="125.953" y2=" 2.746" />
      <line id="3,62" x1="110.256" y1="17.015" x2="125.239" y2="17.729" />
      <line id="4,61" x1="109.543" y1="31.998" x2="124.526" y2="32.712" />
      <line id="5,60" x1="108.829" y1="46.981" x2="123.812" y2="47.695" />
      <line id="6,59" x1="108.115" y1="61.964" x2="123.098" y2="62.678" />
      <line id="7,58" x1="107.401" y1="76.947" x2="122.384" y2="77.661" />
      <line id="10,21" x1="71.303" y1="101.731" x2="69.878" y2="116.663" />
      <line id="11,20" x1="56.371" y1="100.305" x2="54.945" y2="115.237" />
      <line id="12,19" x1="41.439" y1="98.879" x2="40.013" y2="113.811" />
      <line id="23,39" x1="87.044" y1="139.595" x2="101.773" y2="142.434" />
      <line id="24,38" x1="84.206" y1="154.324" x2="98.935" y2="157.163" />
      <line id="25,37" x1="81.367" y1="169.053" x2="96.096" y2="171.892" />
      <line id="26,36" x1="78.528" y1="183.782" x2="93.257" y2="186.621" />
      <line id="27,35" x1="75.689" y1="198.511" x2="90.418" y2="201.350" />
      <line id="44,57" x1="134.666" y1="102.944" x2="133.240" y2="88.012" />
      <line id="45,56" x1="149.598" y1="101.518" x2="148.173" y2="86.586" />
      <line id="46,55" x1="164.530" y1="100.092" x2="163.105" y2="85.160" />
      <line id="47,54" x1="179.463" y1="98.666" x2="178.037" y2="83.734" />
      <line id="48,53" x1="194.395" y1="97.241" x2="192.969" y2="82.309" />
    </g>
    <g style="font-family: SansSerif" transform="translate(-4.6, 4)" id="seq">
      <text x="111.684" y="-12.951">U</text>
      <text x="110.970" y="2.032">C</text>
      <text x="110.256" y="17.015">U</text>
      <text x="109.543" y="31.998">A</text>
      <text x="108.829" y="46.981">A</text>
      <text x="108.115" y="61.964">A</text>
      <text x="107.401" y="76.947">A</text>
      <text x="90.909" y="79.194">U</text>
      <text x="78.040" y="88.368">G</text>
      <text x="71.303" y="101.731">G</text>
      <text x="56.371" y="100.305">C</text>
      <text x="41.439" y="98.879">A</text>
      <text x="31.571" y="86.534">G</text>
      <text x="15.855" y="84.866">A</text>
      <text x="3.615" y="94.863">U</text>
      <text x="2.113" y="110.596">A</text>
      <text x="12.240" y="122.730">G</text>
      <text x="27.988" y="124.066">A</text>
      <text x="40.013" y="113.811">U</text>
      <text x="54.945" y="115.237">G</text>
      <text x="69.878" y="116.663">C</text>
      <text x="75.599" y="130.271">C</text>
      <text x="87.044" y="139.595">U</text>
      <text x="84.206" y="154.324">A</text>
      <text x="81.367" y="169.053">G</text>
      <text x="78.528" y="183.782">G</text>
      <text x="75.689" y="198.511">A</text>
      <text x="61.937" y="205.955">U</text>
      <text x="56.236" y="220.516">U</text>
      <text x="61.277" y="235.319">U</text>
      <text x="74.681" y="243.374">A</text>
      <text x="90.118" y="240.878">A</text>
      <text x="100.299" y="229.009">G</text>
      <text x="100.418" y="213.372">C</text>
      <text x="90.418" y="201.350">U</text>
      <text x="93.257" y="186.621">C</text>
      <text x="96.096" y="171.892">C</text>
      <text x="98.935" y="157.163">U</text>
      <text x="101.773" y="142.434">A</text>
      <text x="112.630" y="140.917">U</text>
      <text x="122.603" y="135.526">C</text>
      <text x="130.313" y="126.709">A</text>
      <text x="134.594" y="115.406">G</text>
      <text x="134.666" y="102.944">G</text>
      <text x="149.598" y="101.518">A</text>
      <text x="164.530" y="100.092">A</text>
      <text x="179.463" y="98.666">G</text>
      <text x="194.395" y="97.241">G</text>
      <text x="209.079" y="104.542">G</text>
      <text x="222.592" y="95.251">C</text>
      <text x="221.034" y="78.926">C</text>
      <text x="206.006" y="72.360">C</text>
      <text x="192.969" y="82.309">C</text>
      <text x="178.037" y="83.734">C</text>
      <text x="163.105" y="85.160">U</text>
      <text x="148.173" y="86.586">U</text>
      <text x="133.240" y="88.012">C</text>
      <text x="122.384" y="77.661">U</text>
      <text x="123.098" y="62.678">U</text>
      <text x="123.812" y="47.695">U</text>
      <text x="124.526" y="32.712">U</text>
      <text x="125.239" y="17.729">A</text>
      <text x="125.953" y="2.746">G</text>
      <text x="126.667" y="-12.237">A</text>
      <text x="129.772" y="-31.369">A</text>
    </g>
  </g>
</svg>
