<?xml version="1.0" encoding="UTF-8" standalone="yes"?>
<svg xmlns="http://www.w3.org/2000/svg" height="452" width="452">
<script type="text/ecmascript">
      <![CDATA[
        var shown = 1;
        function click() {
             var seq = document.getElementById("seq");
             if (shown==1) {
               seq.setAttribute("style", "visibility: hidden");
               shown = 0;
             } else {
               seq.setAttribute("style", "visibility: visible");
               shown = 1;
             }
         }
        ]]>
</script>
  <rect style="stroke: white; fill: white" height="452" x="0" y="0" width="452" onclick="click(evt)" />
  <g transform="scale(1.972399,1.972399) translate(-13.626961,-0.397934)">
    <polyline style="stroke: black; fill: none; stroke-width: 1.5" id="outline" points="
      96.339,23.745
      95.566,38.725
      94.794,53.705
      94.022,68.685
      93.250,83.665
      92.478,98.645
      91.705,113.626
      91.416,116.224
      91.512,118.732
      91.975,121.100
      77.218,118.411
      62.461,115.722
      47.704,113.033
      45.015,127.790
      59.772,130.479
      74.529,133.168
      89.286,135.857
      74.568,138.751
      61.653,146.381
      52.016,157.875
      46.756,171.923
      46.474,186.920
      51.201,201.156
      60.399,213.005
      73.017,221.115
      87.616,224.561
      102.529,222.949
      116.055,216.463
      126.649,205.844
      133.102,192.303
      134.679,177.386
      131.198,162.795
      123.058,150.196
      111.185,141.025
      125.352,145.954
      139.247,151.604
      153.142,157.255
      167.037,162.906
      171.662,177.844
      184.835,186.270
      200.336,184.206
      210.846,172.627
      211.401,156.999
      201.741,144.702
      186.426,141.542
      172.687,149.011
      158.793,143.361
      144.898,137.710
      131.003,132.059
      128.240,127.713
      122.529,125.299
      115.377,126.623
      106.686,114.398
      107.458,99.418
      108.230,84.438
      109.002,69.457
      109.774,54.477
      110.547,39.497
      111.319,24.517
      114.498,5.398
    " />
    <g style="stroke: black; stroke-width: 1" id="pairs">
      <line id="1,59" x1="96.339" y1="23.745" x2="111.319" y2="24.517" />
      <line id="2,58" x1="95.566" y1="38.725" x2="110.547" y2="39.497" />
      <line id="3,57" x1="94.794" y1="53.705" x2="109.774" y2="54.477" />
      <line id="4,56" x1="94.022" y1="68.685" x2="109.002" y2="69.457" />
      <line id="5,55" x1="93.250" y1="83.665" x2="108.230" y2="84.438" />
      <line id="6,54" x1="92.478" y1="98.645" x2="107.458" y2="99.418" />
      <line id="7,53" x1="91.705" y1="113.626" x2="106.686" y2="114.398" />
      <line id="10,17" x1="91.975" y1="121.100" x2="89.286" y2="135.857" />
      <line id="11,16" x1="77.218" y1="118.411" x2="74.529" y2="133.168" />
      <line id="12,15" x1="62.461" y1="115.722" x2="59.772" y2="130.479" />
      <line id="13,14" x1="47.704" y1="113.033" x2="45.015" y2="127.790" />
      <line id="34,52" x1="111.185" y1="141.025" x2="115.377" y2="126.623" />
      <line id="35,49" x1="125.352" y1="145.954" x2="131.003" y2="132.059" />
      <line id="36,48" x1="139.247" y1="151.604" x2="144.898" y2="137.710" />
      <line id="37,47" x1="153.142" y1="157.255" x2="158.793" y2="143.361" />
      <line id="38,46" x1="167.037" y1="162.906" x2="172.687" y2="149.011" />
    </g>
    <g style="font-family: SansSerif" transform="translate(-4.6, 4)" id="seq">
      <text x="96.339" y="23.745">A</text>
      <text x="95.566" y="38.725">C</text>
      <text x="94.794" y="53.705">C</text>
      <text x="94.022" y="68.685">U</text>
      <text x="93.250" y="83.665">C</text>
      <text x="92.478" y="98.645">U</text>
      <text x="91.705" y="113.626">G</text>
      <text x="91.416" y="116.224">U</text>
      <text x="91.512" y="118.732">A</text>
      <text x="91.975" y="121.100">G</text>
      <text x="77.218" y="118.411">U</text>
      <text x="62.461" y="115.722">A</text>
      <text x="47.704" y="113.033">A</text>
      <text x="45.015" y="127.790">U</text>
      <text x="59.772" y="130.479">U</text>
      <text x="74.529" y="133.168">A</text>
      <text x="89.286" y="135.857">C</text>
      <text x="74.568" y="138.751">C</text>
      <text x="61.653" y="146.381">G</text>
      <text x="52.016" y="157.875">G</text>
      <text x="46.756" y="171.923">C</text>
      <text x="46.474" y="186.920">C</text>
      <text x="51.201" y="201.156">U</text>
      <text x="60.399" y="213.005">C</text>
      <text x="73.017" y="221.115">C</text>
      <text x="87.616" y="224.561">G</text>
      <text x="102.529" y="222.949">A</text>
      <text x="116.055" y="216.463">U</text>
      <text x="126.649" y="205.844">G</text>
      <text x="133.102" y="192.303">A</text>
      <text x="134.679" y="177.386">G</text>
      <text x="131.198" y="162.795">G</text>
      <text x="123.058" y="150.196">A</text>
      <text x="111.185" y="141.025">A</text>
      <text x="125.352" y="145.954">U</text>
      <text x="139.247" y="151.604">A</text>
      <text x="153.142" y="157.255">A</text>
      <text x="167.037" y="162.906">U</text>
      <text x="171.662" y="177.844">U</text>
      <text x="184.835" y="186.270">C</text>
      <text x="200.336" y="184.206">U</text>
      <text x="210.846" y="172.627">U</text>
      <text x="211.401" y="156.999">U</text>
      <text x="201.741" y="144.702">U</text>
      <text x="186.426" y="141.542">U</text>
      <text x="172.687" y="149.011">A</text>
      <text x="158.793" y="143.361">U</text>
      <text x="144.898" y="137.710">U</text>
      <text x="131.003" y="132.059">A</text>
      <text x="128.240" y="127.713">C</text>
      <text x="122.529" y="125.299">C</text>
      <text x="115.377" y="126.623">U</text>
      <text x="106.686" y="114.398">C</text>
      <text x="107.458" y="99.418">A</text>
      <text x="108.230" y="84.438">G</text>
      <text x="109.002" y="69.457">A</text>
      <text x="109.774" y="54.477">G</text>
      <text x="110.547" y="39.497">G</text>
      <text x="111.319" y="24.517">U</text>
      <text x="114.498" y="5.398">U</text>
    </g>
  </g>
</svg>
